<?xml version="1.0" encoding="UTF-8"?>
<svg id="_レイヤー_1" data-name="レイヤー 1" xmlns="http://www.w3.org/2000/svg" xmlns:xlink="http://www.w3.org/1999/xlink" viewBox="0 0 464.46 443.2">
  <defs>
    <style>
      .cls-1 {
        fill: url(#_名称未設定グラデーション_218-7);
      }

      .cls-1, .cls-2, .cls-3, .cls-4, .cls-5, .cls-6, .cls-7, .cls-8, .cls-9, .cls-10, .cls-11, .cls-12, .cls-13, .cls-14, .cls-15, .cls-16, .cls-17, .cls-18, .cls-19, .cls-20, .cls-21, .cls-22, .cls-23, .cls-24, .cls-25, .cls-26, .cls-27, .cls-28, .cls-29, .cls-30, .cls-31, .cls-32 {
        stroke: #231815;
        stroke-miterlimit: 10;
      }

      .cls-2 {
        fill: url(#_名称未設定グラデーション_132-20);
      }

      .cls-3 {
        fill: url(#_名称未設定グラデーション_132-10);
      }

      .cls-4 {
        fill: url(#_名称未設定グラデーション_132-4);
      }

      .cls-5 {
        fill: url(#_名称未設定グラデーション_218);
      }

      .cls-6 {
        fill: url(#_名称未設定グラデーション_132-21);
      }

      .cls-7 {
        fill: url(#_名称未設定グラデーション_132);
      }

      .cls-8 {
        fill: url(#_名称未設定グラデーション_218-10);
      }

      .cls-9 {
        fill: url(#_名称未設定グラデーション_132-2);
      }

      .cls-10 {
        fill: url(#_名称未設定グラデーション_132-13);
      }

      .cls-11 {
        fill: url(#_名称未設定グラデーション_218-8);
      }

      .cls-12 {
        fill: url(#_名称未設定グラデーション_132-9);
      }

      .cls-13 {
        fill: url(#_名称未設定グラデーション_218-3);
      }

      .cls-14 {
        fill: url(#_名称未設定グラデーション_132-15);
      }

      .cls-15 {
        fill: url(#_名称未設定グラデーション_132-7);
      }

      .cls-16 {
        fill: url(#_名称未設定グラデーション_132-16);
      }

      .cls-17 {
        fill: url(#_名称未設定グラデーション_218-5);
      }

      .cls-18 {
        fill: url(#_名称未設定グラデーション_132-18);
      }

      .cls-19 {
        fill: url(#_名称未設定グラデーション_132-11);
      }

      .cls-20 {
        fill: url(#_名称未設定グラデーション_218-6);
      }

      .cls-21 {
        fill: url(#_名称未設定グラデーション_132-17);
      }

      .cls-22 {
        fill: url(#_名称未設定グラデーション_218-4);
      }

      .cls-23 {
        fill: url(#_名称未設定グラデーション_132-3);
      }

      .cls-24 {
        fill: url(#_名称未設定グラデーション_132-14);
      }

      .cls-25 {
        fill: url(#_名称未設定グラデーション_132-12);
      }

      .cls-26 {
        fill: url(#_名称未設定グラデーション_132-8);
      }

      .cls-27 {
        fill: none;
      }

      .cls-28 {
        fill: url(#_名称未設定グラデーション_132-6);
      }

      .cls-29 {
        fill: url(#_名称未設定グラデーション_218-2);
      }

      .cls-30 {
        fill: url(#_名称未設定グラデーション_132-19);
      }

      .cls-31 {
        fill: url(#_名称未設定グラデーション_132-5);
      }

      .cls-32 {
        fill: url(#_名称未設定グラデーション_218-9);
      }
    </style>
    <linearGradient id="_名称未設定グラデーション_218" data-name="名称未設定グラデーション 218" x1="58.61" y1="366.17" x2="58.61" y2="224.44" gradientUnits="userSpaceOnUse">
      <stop offset="0" stop-color="#3e3a39"/>
      <stop offset="1" stop-color="#666464"/>
    </linearGradient>
    <linearGradient id="_名称未設定グラデーション_218-2" data-name="名称未設定グラデーション 218" x1="139.4" x2="139.4" y2="224.44" xlink:href="#_名称未設定グラデーション_218"/>
    <linearGradient id="_名称未設定グラデーション_132" data-name="名称未設定グラデーション 132" x1="165.62" y1="300.97" x2="165.62" y2="442.7" gradientUnits="userSpaceOnUse">
      <stop offset="0" stop-color="#fff"/>
      <stop offset="1" stop-color="#e6e6e6"/>
    </linearGradient>
    <linearGradient id="_名称未設定グラデーション_132-2" data-name="名称未設定グラデーション 132" x1="232.23" x2="232.23" xlink:href="#_名称未設定グラデーション_132"/>
    <linearGradient id="_名称未設定グラデーション_218-3" data-name="名称未設定グラデーション 218" x1="255.62" y1="366.17" x2="255.62" y2="224.44" xlink:href="#_名称未設定グラデーション_218"/>
    <linearGradient id="_名称未設定グラデーション_218-4" data-name="名称未設定グラデーション 218" x1="332.15" x2="332.15" xlink:href="#_名称未設定グラデーション_218"/>
    <linearGradient id="_名称未設定グラデーション_218-5" data-name="名称未設定グラデーション 218" x1="408.69" x2="408.69" xlink:href="#_名称未設定グラデーション_218"/>
    <linearGradient id="_名称未設定グラデーション_132-3" data-name="名称未設定グラデーション 132" x1="298.85" y1="300.97" x2="298.85" xlink:href="#_名称未設定グラデーション_132"/>
    <linearGradient id="_名称未設定グラデーション_132-4" data-name="名称未設定グラデーション 132" x1="365.46" x2="365.46" xlink:href="#_名称未設定グラデーション_132"/>
    <linearGradient id="_名称未設定グラデーション_132-5" data-name="名称未設定グラデーション 132" x1="432.07" x2="432.07" y2="442.7" xlink:href="#_名称未設定グラデーション_132"/>
    <linearGradient id="_名称未設定グラデーション_132-6" data-name="名称未設定グラデーション 132" x1="18.93" y1="150.74" x2="18.93" y2="292.47" xlink:href="#_名称未設定グラデーション_132"/>
    <linearGradient id="_名称未設定グラデーション_132-7" data-name="名称未設定グラデーション 132" x1="99" y1="150.74" x2="99" y2="292.47" xlink:href="#_名称未設定グラデーション_132"/>
    <linearGradient id="_名称未設定グラデーション_132-8" data-name="名称未設定グラデーション 132" x1="179.08" y1="150.74" x2="179.08" y2="292.47" xlink:href="#_名称未設定グラデーション_132"/>
    <linearGradient id="_名称未設定グラデーション_132-9" data-name="名称未設定グラデーション 132" x1="217.35" y1="150.74" x2="217.35" y2="292.47" xlink:href="#_名称未設定グラデーション_132"/>
    <linearGradient id="_名称未設定グラデーション_132-10" data-name="名称未設定グラデーション 132" x1="293.89" y1="150.74" x2="293.89" y2="292.47" xlink:href="#_名称未設定グラデーション_132"/>
    <linearGradient id="_名称未設定グラデーション_132-11" data-name="名称未設定グラデーション 132" x1="370.42" y1="150.74" x2="370.42" y2="292.47" xlink:href="#_名称未設定グラデーション_132"/>
    <linearGradient id="_名称未設定グラデーション_132-12" data-name="名称未設定グラデーション 132" x1="446.96" y1="150.74" x2="446.96" y2="292.47" xlink:href="#_名称未設定グラデーション_132"/>
    <linearGradient id="_名称未設定グラデーション_132-13" data-name="名称未設定グラデーション 132" x1="32.39" x2="32.39" xlink:href="#_名称未設定グラデーション_132"/>
    <linearGradient id="_名称未設定グラデーション_132-14" data-name="名称未設定グラデーション 132" x1="99" x2="99" y2="442.7" xlink:href="#_名称未設定グラデーション_132"/>
    <linearGradient id="_名称未設定グラデーション_218-6" data-name="名称未設定グラデーション 218" x1="58.61" y1="218.77" x2="58.61" y2="77.04" xlink:href="#_名称未設定グラデーション_218"/>
    <linearGradient id="_名称未設定グラデーション_218-7" data-name="名称未設定グラデーション 218" x1="139.4" y1="218.77" x2="139.4" y2="77.04" xlink:href="#_名称未設定グラデーション_218"/>
    <linearGradient id="_名称未設定グラデーション_218-8" data-name="名称未設定グラデーション 218" x1="255.62" y1="218.77" x2="255.62" y2="77.04" xlink:href="#_名称未設定グラデーション_218"/>
    <linearGradient id="_名称未設定グラデーション_218-9" data-name="名称未設定グラデーション 218" x1="332.15" y1="218.77" x2="332.15" y2="77.04" xlink:href="#_名称未設定グラデーション_218"/>
    <linearGradient id="_名称未設定グラデーション_218-10" data-name="名称未設定グラデーション 218" x1="408.69" y1="218.77" x2="408.69" y2="77.04" xlink:href="#_名称未設定グラデーション_218"/>
    <linearGradient id="_名称未設定グラデーション_132-15" data-name="名称未設定グラデーション 132" y1=".5" y2="142.23" xlink:href="#_名称未設定グラデーション_132"/>
    <linearGradient id="_名称未設定グラデーション_132-16" data-name="名称未設定グラデーション 132" x1="232.23" y1=".5" x2="232.23" y2="142.23" xlink:href="#_名称未設定グラデーション_132"/>
    <linearGradient id="_名称未設定グラデーション_132-17" data-name="名称未設定グラデーション 132" x1="298.85" y1=".5" x2="298.85" y2="142.23" xlink:href="#_名称未設定グラデーション_132"/>
    <linearGradient id="_名称未設定グラデーション_132-18" data-name="名称未設定グラデーション 132" x1="365.46" y1=".5" x2="365.46" y2="142.23" xlink:href="#_名称未設定グラデーション_132"/>
    <linearGradient id="_名称未設定グラデーション_132-19" data-name="名称未設定グラデーション 132" x1="432.07" y1=".5" x2="432.07" y2="142.23" xlink:href="#_名称未設定グラデーション_132"/>
    <linearGradient id="_名称未設定グラデーション_132-20" data-name="名称未設定グラデーション 132" x1="32.39" y1=".5" x2="32.39" y2="142.23" xlink:href="#_名称未設定グラデーション_132"/>
    <linearGradient id="_名称未設定グラデーション_132-21" data-name="名称未設定グラデーション 132" x1="99" y1=".5" x2="99" y2="142.23" xlink:href="#_名称未設定グラデーション_132"/>
  </defs>
  <rect class="cls-5" x="40.19" y="224.44" width="36.85" height="141.73"/>
  <rect class="cls-29" x="120.97" y="224.44" width="36.85" height="141.73"/>
  <path class="cls-7" d="M133.73,439.88v-68.04h26.93v-70.87h36.85v138.9c0,1.56-1.27,2.83-2.83,2.83h-58.12c-1.56,0-2.83-1.27-2.83-2.83Z"/>
  <path class="cls-9" d="M200.34,300.97v138.9c0,1.56,1.27,2.83,2.83,2.83h58.12c1.56,0,2.83-1.27,2.83-2.83v-68.04h-29.76v-70.87h-34.02Z"/>
  <rect class="cls-13" x="237.19" y="224.44" width="36.85" height="141.73"/>
  <rect class="cls-22" x="313.73" y="224.44" width="36.85" height="141.73"/>
  <rect class="cls-17" x="390.26" y="224.44" width="36.85" height="141.73"/>
  <path class="cls-23" d="M310.89,300.97v70.87h19.84v68.03c0,1.57-1.27,2.84-2.84,2.84h-58.11c-1.56,0-2.83-1.27-2.83-2.83v-68.04h9.92v-70.87h34.02Z"/>
  <path class="cls-4" d="M353.41,300.97v70.87h-19.84s0,68.04,0,68.04c0,1.56,1.27,2.83,2.83,2.83h58.12c1.56,0,2.83-1.27,2.83-2.83v-68.04h-9.92v-70.87h-34.02Z"/>
  <path class="cls-31" d="M429.95,300.97v70.87h-29.76v68.04c0,1.56,1.27,2.83,2.83,2.83h58.12c1.56,0,2.83-1.27,2.83-2.83v-138.9h-34.02Z"/>
  <path class="cls-28" d="M34.51,292.47H3.34c-1.57,0-2.84-1.27-2.84-2.84,0-19.99,0-138.9,0-138.9,0,0,36.85,0,36.85,0v138.89c0,1.57-1.27,2.84-2.84,2.84Z"/>
  <path class="cls-15" d="M115.29,292.47h-32.58c-1.57,0-2.84-1.27-2.84-2.84,0-19.99,0-138.9,0-138.9,0,0,38.27,0,38.27,0v138.89c0,1.57-1.27,2.84-2.84,2.84Z"/>
  <path class="cls-26" d="M194.66,292.47h-31.16c-1.57,0-2.84-1.27-2.84-2.84,0-19.99,0-138.9,0-138.9,0,0,36.85,0,36.85,0v138.89c0,1.57-1.27,2.84-2.84,2.84Z"/>
  <path class="cls-12" d="M231.51,292.47h-28.33c-1.57,0-2.84-1.27-2.84-2.84,0-19.99,0-138.9,0-138.9,0,0,34.02,0,34.02,0v138.89c0,1.57-1.27,2.84-2.84,2.84Z"/>
  <path class="cls-3" d="M308.05,292.47h-28.33c-1.57,0-2.84-1.27-2.84-2.84,0-19.99,0-138.9,0-138.9,0,0,34.02,0,34.02,0v138.89c0,1.57-1.27,2.84-2.84,2.84Z"/>
  <path class="cls-19" d="M384.59,292.47h-28.33c-1.57,0-2.84-1.27-2.84-2.84,0-19.99,0-138.9,0-138.9,0,0,34.02,0,34.02,0v138.89c0,1.57-1.27,2.84-2.84,2.84Z"/>
  <path class="cls-25" d="M461.12,292.47h-28.33c-1.57,0-2.84-1.27-2.84-2.84,0-19.99,0-138.9,0-138.9,0,0,34.02,0,34.02,0v138.89c0,1.57-1.27,2.84-2.84,2.84Z"/>
  <path class="cls-10" d="M37.35,371.84v-70.87H.5v138.9c0,1.56,1.27,2.83,2.83,2.83h58.12c1.56,0,2.83-1.27,2.83-2.83v-68.04h-26.93Z"/>
  <path class="cls-24" d="M118.14,300.97v70.87h12.76v68.04c0,1.56-1.27,2.83-2.83,2.83h-58.12c-1.56,0-2.83-1.27-2.83-2.83v-68.04h12.76v-70.87h38.27Z"/>
  <rect class="cls-20" x="40.19" y="77.04" width="36.85" height="141.73"/>
  <rect class="cls-1" x="120.97" y="77.04" width="36.85" height="141.73"/>
  <rect class="cls-11" x="237.19" y="77.04" width="36.85" height="141.73"/>
  <rect class="cls-32" x="313.73" y="77.04" width="36.85" height="141.73"/>
  <rect class="cls-8" x="390.26" y="77.04" width="36.85" height="141.73"/>
  <path class="cls-14" d="M133.73.5v70.87h26.93v68.04c0,1.56,1.27,2.83,2.83,2.83h31.19c1.56,0,2.83-1.27,2.83-2.83V.5h-63.78Z"/>
  <path class="cls-16" d="M200.34,139.4V.5h63.78v70.87h-29.76v68.04c0,1.56-1.27,2.83-2.83,2.83h-28.36c-1.56,0-2.83-1.27-2.83-2.83Z"/>
  <path class="cls-21" d="M308.06,142.23c1.56,0,2.83-1.27,2.83-2.83v-68.04h19.84V.5h-63.78v70.87h9.92v68.04c0,1.56,1.27,2.83,2.83,2.83h28.36Z"/>
  <path class="cls-18" d="M353.41,139.4v-68.04h-19.84s0-70.87,0-70.87h63.78v70.87h-9.92v68.04c0,1.56-1.27,2.83-2.83,2.83h-28.36c-1.56,0-2.83-1.27-2.83-2.83Z"/>
  <path class="cls-30" d="M429.95,139.4v-68.04h-29.76V.5h63.78s0,138.9,0,138.9c0,1.56-1.27,2.83-2.83,2.83h-28.36c-1.56,0-2.83-1.27-2.83-2.83Z"/>
  <path class="cls-2" d="M37.35,71.37v68.04c0,1.56-1.27,2.83-2.83,2.83H3.33c-1.56,0-2.83-1.27-2.83-2.83V.5h63.78v70.87h-26.93Z"/>
  <path class="cls-6" d="M118.14,139.4v-68.04h12.76V.5h-63.78v70.87h12.76v68.04c0,1.56,1.27,2.83,2.83,2.83h32.61c1.56,0,2.83-1.27,2.83-2.83Z"/>
  <polyline class="cls-27" points="74.2 224.44 74.2 360.5 77.04 366.17 74.2 360.5 43.02 360.5 40.19 366.17 43.02 360.5 43.02 224.44"/>
  <polyline class="cls-27" points="154.99 224.44 154.99 360.5 157.82 366.17 154.99 360.5 123.81 360.5 120.97 366.17 123.81 360.5 123.81 224.44"/>
  <polyline class="cls-27" points="271.21 224.44 271.21 360.5 274.04 366.17 271.21 360.5 240.03 360.5 237.19 366.17 240.03 360.5 240.03 224.44"/>
  <polyline class="cls-27" points="347.74 224.44 347.74 360.5 350.58 366.17 347.74 360.5 316.56 360.5 313.73 366.17 316.56 360.5 316.56 224.44"/>
  <polyline class="cls-27" points="424.28 224.44 424.28 360.5 427.11 366.17 424.28 360.5 393.1 360.5 390.26 366.17 393.1 360.5 393.1 224.44"/>
  <polyline class="cls-27" points="74.2 77.04 74.2 213.1 77.04 218.77 74.2 213.1 43.02 213.1 40.19 218.77 43.02 213.1 43.02 77.04"/>
  <polyline class="cls-27" points="154.99 77.04 154.99 213.1 157.82 218.77 154.99 213.1 123.81 213.1 120.97 218.77 123.81 213.1 123.81 77.04"/>
  <polyline class="cls-27" points="271.21 77.04 271.21 213.1 274.04 218.77 271.21 213.1 240.03 213.1 237.19 218.77 240.03 213.1 240.03 77.04"/>
  <polyline class="cls-27" points="347.74 77.04 347.74 213.1 350.58 218.77 347.74 213.1 316.56 213.1 313.73 218.77 316.56 213.1 316.56 77.04"/>
  <polyline class="cls-27" points="424.28 77.04 424.28 213.1 427.11 218.77 424.28 213.1 393.1 213.1 390.26 218.77 393.1 213.1 393.1 77.04"/>
</svg>